<svg width="323" height="259" viewBox="0 0 323 259" fill="none" xmlns="http://www.w3.org/2000/svg">
  <path d="M322.966 42.2841L322.966 205.49H284.581L284.581 42.4081C285.967 42.0049 320.308 41.8704 322.966 42.2841Z" fill="currentColor"/>
  <path d="M272.61 42.0693L272.61 205.172C271.12 205.565 238.775 205.751 234.152 205.358L234.152 42.0693H272.61Z" fill="currentColor"/>
  <path d="M222.131 42.1914H183.673L183.673 205.387H222.131L222.131 42.1914Z" fill="currentColor"/>
  <path d="M149.562 202.129C149.469 202.356 149.459 202.429 149.417 202.47C149.376 202.511 149.293 202.553 149.231 202.553C142.218 202.584 135.195 202.615 128.182 202.635H105.798C103.802 198.644 101.836 194.735 99.8814 190.826C97.8437 186.711 95.8577 182.564 93.7373 178.5C93.0236 177.146 93.0856 176.153 93.8821 174.809C100.337 164.178 106.698 153.497 113.09 142.825C113.38 142.339 113.732 141.905 114.156 141.284C114.538 141.677 114.931 141.967 115.149 142.349C120.021 150.798 124.851 159.277 129.733 167.725C135.484 177.704 141.277 187.662 147.048 197.641C147.928 199.161 148.765 200.702 149.572 202.129H149.562Z" fill="currentColor"/>
  <path d="M174.116 0.186132C173.909 0.372264 173.878 0.517034 173.847 0.661803C171.375 3.83639 169.172 6.93859 166.855 9.95807C165.355 11.9228 163.71 13.7634 161.993 15.8419C163.276 16.3176 163.348 17.2896 163.027 18.365C162.428 20.4538 161.766 22.5427 161.145 24.6211C160.721 26.0481 160.276 27.4545 159.914 28.8918C159.418 30.9186 158.425 32.4077 156.18 32.6662C155.363 32.7592 154.98 33.297 154.69 33.9898C154.039 35.5512 153.367 37.1127 152.715 38.6638C152.746 39.0877 152.839 39.2015 152.922 39.3256C156.304 36.8335 159.449 34.2173 162.655 31.6838C163.576 30.96 164.538 30.1224 166.131 30.5257C166.368 32.7696 165.013 34.5172 164.103 36.3164C162.924 38.6534 161.735 41.0835 159.242 42.7276C158.807 41.6936 158.476 40.887 158.083 39.9253C157.111 40.8974 157.483 41.9004 157.525 42.8104C157.566 43.741 157.783 44.6924 156.449 45.0233C156.573 45.5093 156.645 45.9126 156.759 46.3055C157.101 47.5257 156.842 48.4667 155.714 49.2216C154.08 50.328 152.342 51.3724 151.008 52.7891C148.339 55.5914 145.805 58.5385 143.406 61.589C134.603 72.7466 125.832 83.9249 117.133 95.1445C113.678 99.622 110.42 104.244 107.068 108.794C106.52 109.539 106.096 110.273 107.244 110.873C105.196 112.413 102.807 113.447 102.59 116.57C101.71 115.722 101.152 116.022 100.645 116.736C99.0416 118.969 97.2419 121.089 95.8041 123.426C93.2492 127.573 90.9012 131.844 88.4601 136.052C88.2222 136.466 87.8912 136.828 87.5395 137.283C87.8291 138.182 88.0877 139.144 88.4291 140.054C88.7187 140.819 89.2773 141.181 90.1151 140.768C90.6012 140.333 90.7667 140.064 90.9426 139.796C91.4184 139.341 91.677 138.989 91.9356 138.658C92.2252 138.41 92.2459 138.213 92.2872 138.027C92.2872 137.996 92.3803 137.996 92.4217 137.986C92.4217 138.162 92.401 138.327 92.3907 138.482C92.1838 138.803 92.1735 138.999 92.1735 139.206C92.5251 139.289 92.9389 139.154 93.1458 138.865C97.9038 132.454 102.693 126.073 107.368 119.6C114.371 109.932 121.198 100.139 128.262 90.5222C133.983 82.7254 140.003 75.1456 145.785 67.3798C148.774 63.3573 151.525 59.159 154.38 55.0537C153.977 54.971 153.429 55.1158 153.139 55.457C151.329 57.5665 149.591 59.7277 147.822 61.8682C143.426 67.4005 139.237 72.7466 135.12 78.1238C129.835 85.0313 124.58 91.9699 119.326 98.8982C116.988 101.938 114.898 104.844 112.809 107.739C111.578 109.652 110.389 111.235 109.003 112.703C109.54 110.935 110.606 109.508 111.713 108.101C114.009 104.823 116.14 101.721 118.26 98.6293C120.856 95.1135 123.091 91.67 125.563 88.4231C131.097 81.1639 136.786 74.0392 142.319 66.7697C143.706 64.9601 145.34 63.3986 146.736 61.6097C149.705 58.3731 152.436 55.2812 155.166 52.1997C156.583 51.0209 157.421 49.4594 159.5 49.0768C158.962 51.2484 157.897 52.8201 156.976 54.4436C152.187 62.8196 146.436 70.5441 140.685 78.2479C134.51 86.5307 128.211 94.7205 122.056 103.014C115.726 111.524 109.52 120.117 103.22 128.659C99.445 133.777 95.8765 139.03 92.7114 144.573C89.2152 150.715 85.4294 156.682 81.6643 162.669C76.7201 170.507 71.6827 178.283 66.6557 186.07C62.4045 192.667 58.0705 199.213 53.8502 205.821C50.4575 211.125 47.1786 216.503 43.8479 221.838C43.0825 223.069 42.5136 224.082 41.9447 225.106C41.7895 225.023 41.6344 224.951 41.4792 224.879C41.8826 223.989 42.2964 223.1 42.7101 222.211C43.5686 220.711 44.21 219.377 44.8616 218.043C45.2857 217.175 45.7719 216.389 45.6374 215.272C45.5133 214.279 46.32 213.514 47.2303 212.987C48.0681 212.49 48.4509 211.756 48.8646 210.784C49.6507 208.913 51.1299 207.33 51.5126 205.221C51.5126 205.159 51.5953 205.087 51.647 205.066C53.5917 204.497 53.6951 202.636 54.4812 201.209C55.5983 199.172 56.974 197.279 58.2049 195.294C59.7565 192.771 61.308 190.237 62.7665 187.652C63.6767 186.049 63.7491 184.271 63.1595 182.523C62.4665 180.486 61.1115 180.083 59.7564 181.748C58.2049 183.65 56.7982 185.729 55.7017 187.921C51.8022 195.708 47.3027 203.132 42.6998 210.505C42.3481 210.795 42.255 210.95 42.1516 211.094C41.893 211.188 41.8619 211.425 41.8413 211.653C41.7999 211.467 41.7585 211.27 41.7068 211.084C41.955 210.846 41.9654 210.691 41.9757 210.536C42.2653 209.874 42.4205 209.409 42.5653 208.933C42.586 208.592 42.5033 208.54 42.4309 208.489C41.4482 208.013 41.2207 208.664 40.9517 209.109C39.4829 211.601 38.0245 214.093 36.6177 216.627C35.8006 218.074 35.1075 219.594 34.1766 221.456C33.6387 220.205 33.2664 219.326 32.7802 218.167C30.5977 222.79 28.3945 227.185 25.3949 231.145C27.7636 223.534 31.2597 216.41 34.4766 209.161C34.4559 208.851 34.3318 208.851 34.1973 208.851C31.3735 212.077 29.7806 215.768 28.1256 219.439C28.0428 219.626 27.8773 219.915 27.9394 220.018C28.9738 221.518 27.7015 222.428 26.9361 223.245C25.8603 224.424 25.2294 225.809 24.4639 227.143C22.24 231 20.0058 234.847 17.6268 238.611C16.6131 240.203 15.3098 241.682 12.9721 241.92C12.7446 239.821 13.2307 237.856 13.8203 235.953C16.0856 228.632 19.5093 221.797 22.7572 214.9C25.881 208.251 28.86 201.529 31.8286 194.808C32.4079 193.505 32.6768 192.068 33.0905 190.692C32.9561 190.641 32.8113 190.589 32.6768 190.537C31.8596 192.15 31.0115 193.763 30.2357 195.397C27.0085 202.315 23.6881 209.192 20.6057 216.172C18.0095 222.045 15.6925 228.043 13.2721 234.009C12.3515 236.295 11.2137 238.549 10.6448 240.938C9.36219 246.346 5.41091 250.193 2.88706 254.877C2.13198 256.283 1.07694 257.534 0.0218831 258.786C-0.164303 256.924 0.880397 255.456 1.53205 253.926C5.04889 245.663 8.65882 237.453 12.2274 229.222C13.8824 225.396 15.5063 221.549 17.1406 217.702C17.3578 217.185 17.5337 216.647 17.7302 216.12C17.6578 215.665 17.5544 215.52 17.4509 215.355C15.9511 218.064 14.6788 220.887 13.4272 223.731C10.6862 229.945 7.95547 236.15 5.20406 242.365C5.10063 242.613 4.89375 242.82 4.42829 242.964C4.59379 242.313 4.72824 241.641 4.93512 241C5.95914 237.918 6.99352 234.837 8.01754 231.755C7.53139 231.755 7.14866 232.096 6.77629 232.448C6.68319 232.396 6.5901 232.345 6.48666 232.293C6.85904 231.6 7.22107 230.907 7.59344 230.214C7.99685 229.501 8.1313 228.849 8.25542 228.208C9.76559 224.579 11.0689 221.135 12.3826 217.681C11.9068 217.433 11.6481 217.464 11.1723 217.537C11.4309 217.02 11.6171 216.647 11.9895 215.893C12.0516 216.606 12.0723 216.865 12.0929 217.123C13.2721 216.834 13.2721 215.706 13.541 214.714C13.4583 214.383 13.2514 214.424 13.2514 214.424C13.0135 214.6 12.9618 214.724 12.8687 214.827C12.5481 215.107 12.3929 215.251 12.2481 215.407C12.2481 215.22 12.2688 215.045 12.2791 214.858C12.4963 214.569 12.5687 214.445 12.6618 214.341C13.9238 211.632 15.0305 209.026 16.127 206.431C17.2544 204.352 18.1129 202.429 18.9715 200.495C20.0162 198.107 21.0505 195.697 22.0952 193.319C25.6741 185.17 29.0876 176.939 32.9044 168.905C35.7178 162.979 39.0692 157.302 42.1826 151.522C42.4102 151.098 42.7101 150.705 43.1756 150.002C43.4135 150.932 43.5687 151.563 43.7238 152.215C46.1028 153.404 46.6407 156.072 48.2026 157.912C48.4819 158.161 48.5853 158.15 48.6991 158.15C47.251 154.138 45.5029 150.043 43.6617 145.752C52.4228 130.127 61.2666 114.368 70.1725 98.5052C70.5035 99.3015 70.7932 99.9943 71.1966 100.946C72.2723 99.6841 71.8068 98.6707 71.4448 97.74C71.1035 96.8094 71.2069 96.1372 72.3136 95.434C73.5445 99.7254 74.7238 103.903 75.9133 108.07C76.2029 108.381 76.3787 108.381 76.5546 108.391C76.265 106.209 75.8098 103.986 75.1375 101.835C73.8342 97.6263 74.9513 93.9553 77.1648 90.3568C81.2919 83.6664 86.0914 77.4826 90.8909 71.2782C95.7317 65.0221 100.645 58.8384 105.527 52.6133C105.868 52.5306 105.92 52.4065 105.972 52.2824C105.993 52.3755 106.003 52.4686 106.024 52.572C105.786 52.8615 105.786 53.12 105.786 53.6474C106.913 52.9029 107.865 52.2824 108.827 51.6516C109.116 50.3177 108.185 49.2733 108.92 48.1772C109.654 47.2569 110.12 46.564 110.596 45.8816C111.878 44.227 112.902 42.6966 113.936 41.1662C114.257 40.7422 114.309 40.401 114.381 39.884C113.668 40.0184 113.037 40.1321 112.406 40.2459C112.323 40.1528 112.251 40.0494 112.168 39.946C113.45 38.8085 114.733 37.6607 116.036 36.4922C116.481 37.7952 116.16 38.8189 114.619 41.1145C113.347 42.8 112.333 44.3305 111.309 45.8505C110.802 46.5227 110.564 47.0914 110.327 47.6601C110.296 48.7356 110.202 49.4801 110.12 50.2246C111.764 48.8803 112.912 47.3086 113.512 45.3645C113.699 44.7751 114.371 44.3408 114.836 43.8548C115.012 43.6583 115.312 43.5135 115.385 43.2964C116.843 39.2635 119.75 36.2234 122.511 33.1212C129.069 25.7689 136.124 18.9234 143.85 12.7914C144.585 12.2123 145.402 11.747 146.178 11.23C146.302 11.3851 146.416 11.5505 146.55 11.716C143.592 14.4976 140.644 17.2689 137.696 20.0506C137.613 20.2987 137.737 20.3401 137.861 20.3815C141.988 17.4861 145.702 14.4769 149.488 11.5712C151.929 9.67887 154.463 7.92095 156.976 6.13202C157.245 5.93554 157.587 5.84248 158.29 5.51158C157.835 6.49394 157.525 7.13506 157.235 7.78652C157.37 8.00368 157.732 7.983 158.114 7.97266C158.693 7.60039 158.911 7.36256 159.118 7.11438C159.387 6.86621 159.459 6.75246 159.583 6.66973C159.976 6.32849 160.183 6.08031 160.4 5.83214C160.659 5.5943 160.742 5.48056 160.845 5.38749C161.073 5.14965 161.155 5.04625 161.269 4.96352C161.548 4.75671 161.631 4.6533 161.714 4.53955C162.003 4.36376 162.066 4.25002 162.148 4.13627C162.428 3.9398 162.49 3.81571 162.572 3.69162C162.862 3.53651 162.945 3.44344 163.027 3.34004C163.048 3.45378 163.058 3.55719 163.09 3.67094C162.852 3.89843 162.779 4.01218 162.717 4.13627C162.479 4.35342 162.386 4.46717 162.272 4.5499C162.034 4.76705 161.983 4.90148 161.931 5.04625C161.693 5.3151 161.6 5.41851 161.486 5.4909C161.248 5.70805 161.145 5.81146 161.041 5.89418C160.669 6.25611 160.462 6.51462 160.266 6.7628C159.966 6.95927 159.893 7.07302 159.8 7.16608C159.428 7.54869 159.2 7.79687 158.983 8.04504C157.669 9.22388 156.594 10.2786 155.497 11.3437C152.198 14.57 149.084 17.6515 146.167 20.9088C144.823 22.4082 143.861 24.2489 142.723 25.9344C142.175 26.7513 141.626 27.5786 141.068 28.3955C141.068 28.7988 141.171 28.9435 141.275 29.078C148.722 21.612 155.952 14.0116 164.062 7.33154C166.927 4.96352 169.978 2.81266 172.957 0.558396C173.371 0.330901 173.516 0.227495 173.671 0.134429C173.909 0.196473 173.919 0.103407 173.94 0C173.971 0.0827254 174.012 0.144769 174.043 0.227495L174.116 0.186132Z" fill="currentColor"/>
  <path d="M71.5459 68.6945C66.1775 77.5875 60.8713 86.5322 55.5546 95.4562C54.3237 97.5243 53.1135 99.5925 51.8619 101.65C51.5827 102.105 51.2206 102.519 50.7345 103.181C47.59 97.7208 44.5593 92.4884 41.5493 87.2354C38.9531 82.7372 36.5533 78.4871 34.1226 74.2475C30.6057 68.1154 27.0889 61.9834 23.541 55.8618C21.1309 51.7048 18.6795 47.5685 16.2591 43.4219C15.9591 42.9049 15.7316 42.3362 15.3799 41.6123H59.3197C61.3057 45.5314 63.333 49.4919 65.3294 53.4627C67.4291 57.6403 69.4668 61.8283 71.608 65.9749C72.1148 66.9676 72.1458 67.6811 71.5356 68.6842L71.5459 68.6945Z" fill="currentColor"/>
</svg>
