<?xml version="1.0" encoding="UTF-8"?>
<svg id="Layer_2" data-name="Layer 2" xmlns="http://www.w3.org/2000/svg" viewBox="0 0 124.53 166.75">
  <defs>
    <style>
      .cls-1 {
        fill: none;
        stroke: #000;
        stroke-miterlimit: 10;
        stroke-width: .75px;
      }

      .cls-2 {
        fill: #101644;
      }

      .cls-3 {
        fill: #fff;
      }
    </style>
  </defs>
  <g id="Layer_1-2" data-name="Layer 1">
    <g>
      <g>
        <path d="M24.84,64.15c6.04,0,8.76,3.04,8.76,5.92,0,9.74-13.03,17.43-13.03,22.69,0,.62.21.95.62.95,4.15,0,19.57-25.16,26.1-25.16.53,0,1.03,0,1.03.62,0,.25-.21.41-.41.41s-.41-.17-.41-.58c0-.25-.04-.29-.21-.29-6,0-21.95,25.16-26.1,25.16-.7,0-1.48-.7-1.48-1.77,0-7.44,12.37-13.57,12.37-22.03,0-2.84-1.32-5.75-7.23-5.75-8.26,0-13.85,6.86-13.85,11.88,0,1.89.78,3.45,2.47,4.36.99.53,2.26.82,3.86.82,6.25,0,9.29-4.56,9.29-8.02,0-2.14-1.11-3.82-3.33-3.82-1.6,0-3.45.66-4.4,1.56l-.08-.12c.99-.95,2.67-1.6,4.52-1.6,2.38,0,3.49,1.73,3.49,3.95,0,3.99-3.62,9.66-9.7,9.66-4.65,0-6.82-2.88-6.82-6.37,0-5.47,5.26-12.46,14.55-12.46h0Z"/>
        <path d="M43.75,78.9c.95,0,1.4.62,1.4,1.36,0,1.03-.78,2.26-2.05,2.47-.49.08-.62-.12-.66-.33,0-.16.12-.45.49-.45,1.11,0,1.93-.62,1.93-1.89,0-.53-.29-.99-1.11-.99-3.04,0-9.82,10.19-9.82,12.74,0,.37.12.58.45.58,2.63,0,8.26-4.03,10.89-7.56h.21c-2.67,3.58-8.39,7.73-11.1,7.73-1.15,0-1.36-1.6-1.36-2.18,0-4.07,5.75-11.47,10.73-11.47h0Z"/>
        <path d="M55.22,84.78c-3.33,4.6-6.99,7.69-8.22,7.69-.99,0-1.52-.99-1.52-1.93,0-1.4.99-3.25,2.3-5.14,2.1-2.96,4.69-5.1,4.69-5.55,0-.21-.08-.25-.29-.25-.33,0-1.48.49-3.33.49-.54.9-1.89,2.84-3.33,4.69h-.21c2.14-2.75,2.79-3.78,3.37-4.73.45-1.03.16-1.4.16-2.3,0-.82,1.07-.82,1.07,0s-.74,1.85-.95,2.18c1.77,0,3.33-.78,4.32-.78,1.32,0,.99,1.19.08,2.38-2.18,2.8-6.66,7.32-6.66,10.2,0,.33.12.53.37.53,1.23,0,5.06-3.54,7.93-7.48h.21Z"/>
        <path d="M65.25,84.78c-2.71,3.62-8.39,7.77-11.1,7.77-1.15,0-1.36-1.6-1.36-2.18,0-4.07,5.88-11.47,10.85-11.47,2.59,0,1.4,3.08-2.34,4.97-1.44.7-3.04,1.11-4.19,1.23-1.93,2.67-3.41,5.51-3.41,6.7,0,.37.12.58.45.58,2.63,0,8.22-4.07,10.89-7.6h.21ZM58.47,83.3c-.45.53-.86,1.11-1.27,1.68,1.15-.12,2.71-.58,4.03-1.27,2.92-1.56,3.78-4.69,2.42-4.69s-3.33,1.93-5.18,4.28Z"/>
        <path d="M78.66,84.78h.21c-2.67,3.66-7.19,7.69-8.84,7.69-.7,0-.99-.7-.99-1.27,0-1.03.95-2.59,2.26-4.4-2.63,3-5.84,5.75-7.03,5.75s-1.36-1.6-1.36-2.18c0-4.07,5.38-11.3,10.36-11.3,1.07,0,1.68.53,1.68,1.56,0,.66-.41,1.6-1.03,2.67l3.25-4.32c.41.66,1.56.21,2.18-.49h.04c-1.52,2.18-3.41,4.6-4.97,6.74-2.51,3.33-4.69,6.08-4.69,6.82,0,.16.08.25.25.25,1.56,0,6.04-3.91,8.67-7.52ZM74.79,80.63c0-.9-.49-1.27-1.23-1.27-.9,0-2.22.62-3.33,1.73-1.48,1.44-3.04,3.49-4.23,5.51-1.27,2.1-2.18,4.11-2.18,5.22,0,.37.12.58.45.58,2.05,0,10.52-8.71,10.52-11.76Z"/>
        <path d="M89.92,76.03c0,.08-.08.16-.25.16h-1.11c-.49,0-.9,0-1.6-.04l-6.7,9.08c-2.51,3.33-4.69,6.08-4.69,6.82,0,.16.08.25.25.25,1.56,0,5.55-3.91,8.18-7.52h.21c-2.67,3.66-6.7,7.69-8.34,7.69-.7,0-.99-.7-.99-1.27,0-1.56,2.18-4.36,4.44-7.32.49-.62,1.52-2.01,2.67-3.58.7-1.03,1.6-2.38,1.6-3.21,0-.53-.25-.86-.99-.86-.16-.04-.25-.08-.25-.16s.12-.21.37-.21c.53,0,.82.04,1.36.04.37.04.78.04,1.15.04.74-.99,1.4-1.89,1.89-2.59.17.25.37.33.66.33.53,0,1.23-.41,1.64-.95-.45.66-1.27,1.81-2.3,3.21.45-.04.82-.04,1.19-.04.45-.04.86-.08,1.36-.08.16,0,.25.12.25.21ZM83.22,78.66l1.85-2.51c-.37.04-.7.04-1.07.04-.37.04-.62.04-.86.04.41.12.66.41.66.82,0,.45-.25,1.03-.58,1.6Z"/>
        <path d="M90.58,78.49c-1.52,2.18-3.41,4.6-4.97,6.74-2.51,3.33-4.69,6.08-4.69,6.82,0,.16.08.25.25.25,1.56,0,6.04-3.91,8.67-7.52h.21c-2.67,3.66-7.19,7.69-8.84,7.69-.7,0-.99-.7-.99-1.27,0-1.56,2.18-4.36,4.44-7.32,1.23-1.64,1.73-2.26,3.7-4.89.41.66,1.56.21,2.18-.49h.04,0ZM92.84,74.26c-.33.66-.95,1.15-1.44,1.11-.45-.04-.62-.62-.29-1.32.33-.66.99-1.19,1.44-1.11.49.04.62.62.29,1.32Z"/>
        <path d="M95.92,79.03c1.27,0,1.85.7,1.85,1.73,0,1.19-.7,2.84-1.93,4.48-2.55,3.29-4.69,6.08-4.69,6.82,0,.17.08.25.25.25,3.74,0,11.47-10.07,11.47-10.89,0-.7-.74-.62-.74-1.52,0-1.36,1.97-1.97,1.97-.21,0,1.89-8.76,12.79-12.66,12.79-.7,0-.99-.7-.99-1.27,0-1.48,1.89-3.99,3.95-6.7,1.64-2.06,3.45-5.3,1.56-5.3-1.32,0-3.7,2.59-5.92,5.59h-.21c2.34-3.08,4.69-5.75,6.08-5.75h0Z"/>
        <path d="M113.56,84.78c-2.71,3.62-8.39,7.77-11.1,7.77-1.15,0-1.36-1.6-1.36-2.18,0-4.07,5.88-11.47,10.85-11.47,2.59,0,1.4,3.08-2.34,4.97-1.44.7-3.04,1.11-4.19,1.23-1.93,2.67-3.41,5.51-3.41,6.7,0,.37.12.58.45.58,2.63,0,8.22-4.07,10.89-7.6h.21ZM106.78,83.3c-.45.53-.86,1.11-1.27,1.68,1.15-.12,2.71-.58,4.03-1.27,2.92-1.56,3.78-4.69,2.42-4.69s-3.33,1.93-5.18,4.28Z"/>
      </g>
      <ellipse class="cls-1" cx="62.26" cy="83.38" rx="61.89" ry="83"/>
      <g>
        <path class="cls-2" d="M38.54,46.5c.11-.19.25-.34.44-.45.18-.11.39-.16.62-.16.27,0,.5.06.7.19s.34.31.43.55h-.38c-.07-.15-.17-.26-.29-.34-.13-.08-.28-.12-.46-.12s-.32.04-.46.12c-.14.08-.24.19-.32.34-.08.15-.12.32-.12.51s.04.36.12.51c.08.15.18.26.32.34.13.08.29.12.46.12s.33-.04.46-.12.22-.19.29-.34h.38c-.09.23-.24.41-.43.54-.2.13-.43.19-.7.19-.23,0-.43-.05-.62-.16-.19-.11-.33-.25-.44-.44-.11-.19-.16-.4-.16-.64s.05-.45.16-.64Z"/>
        <path class="cls-2" d="M41.69,48.23c-.19-.11-.33-.25-.44-.44-.11-.19-.16-.4-.16-.64s.05-.45.16-.64c.11-.19.26-.34.44-.44.19-.11.39-.16.62-.16s.44.05.62.16c.19.11.33.25.44.44s.16.4.16.64-.05.46-.16.64c-.11.19-.25.34-.44.44-.19.11-.39.16-.62.16s-.43-.05-.62-.16ZM42.77,47.99c.14-.08.24-.19.32-.34.08-.15.12-.32.12-.51s-.04-.37-.12-.51c-.08-.15-.18-.26-.32-.34-.13-.08-.29-.12-.46-.12s-.33.04-.46.12c-.13.08-.24.19-.32.34-.08.15-.12.32-.12.51s.04.36.12.51c.08.15.19.26.32.34.14.08.29.12.46.12s.32-.04.46-.12Z"/>
        <path class="cls-2" d="M45.87,48.36h-.32l-1.28-1.94v1.94h-.32v-2.44h.32l1.28,1.94v-1.94h.32v2.44Z"/>
        <path class="cls-2" d="M47.91,45.92v.26h-.67v2.18h-.32v-2.18h-.67v-.26h1.65Z"/>
        <path class="cls-2" d="M48.62,46.18v.82h.89v.26h-.89v.84h.99v.26h-1.31v-2.44h1.31v.26h-.99Z"/>
        <path class="cls-2" d="M52.02,48.36h-.32l-1.28-1.94v1.94h-.32v-2.44h.32l1.28,1.94v-1.94h.32v2.44Z"/>
        <path class="cls-2" d="M54.06,45.92v.26h-.67v2.18h-.32v-2.18h-.67v-.26h1.65Z"/>
        <path class="cls-2" d="M55.35,47.32s-.06-.09-.06-.15.02-.11.06-.15.09-.06.15-.06.11.02.15.06.06.09.06.15-.02.11-.06.15-.09.06-.15.06-.11-.02-.15-.06Z"/>
        <path class="cls-2" d="M57.41,48.3c-.13-.06-.23-.14-.3-.24s-.11-.22-.11-.35h.34c.01.11.06.21.14.29s.2.12.36.12.27-.04.36-.11c.09-.08.13-.17.13-.29,0-.09-.03-.17-.08-.23-.05-.06-.12-.1-.19-.13-.08-.03-.18-.06-.31-.1-.16-.04-.29-.08-.39-.13s-.18-.11-.25-.2c-.07-.09-.1-.21-.1-.36,0-.13.03-.25.1-.35.07-.1.16-.18.29-.24.12-.06.26-.08.42-.08.23,0,.42.06.56.17s.23.27.25.45h-.35c-.01-.09-.06-.17-.15-.25-.09-.07-.2-.11-.34-.11-.13,0-.24.04-.33.1-.08.07-.13.17-.13.29,0,.09.03.16.08.22.05.06.11.1.19.13s.18.06.31.1c.16.04.29.09.39.13.1.04.18.11.25.2.07.09.11.21.11.37,0,.12-.03.23-.09.34-.06.11-.16.19-.28.26-.12.07-.27.1-.44.1s-.3-.03-.43-.08Z"/>
        <path class="cls-2" d="M60.62,45.92v.26h-.67v2.18h-.32v-2.18h-.67v-.26h1.65Z"/>
        <path class="cls-2" d="M62.3,48.36l-.58-1h-.39v1h-.32v-2.44h.79c.18,0,.34.03.47.09.13.06.22.15.29.26.06.11.09.23.09.37,0,.17-.05.32-.15.44-.1.13-.24.21-.44.26l.61,1.02h-.38ZM61.33,47.11h.47c.17,0,.3-.04.39-.13.09-.08.13-.2.13-.34s-.04-.26-.13-.34-.21-.12-.39-.12h-.47v.92Z"/>
        <path class="cls-2" d="M64.58,47.82h-1.06l-.2.54h-.34l.88-2.42h.37l.88,2.42h-.34l-.2-.54ZM64.49,47.56l-.44-1.23-.44,1.23h.88Z"/>
        <path class="cls-2" d="M67,45.92v.26h-.67v2.18h-.32v-2.18h-.67v-.26h1.65Z"/>
        <path class="cls-2" d="M67.71,46.18v.82h.89v.26h-.89v.84h.99v.26h-1.31v-2.44h1.31v.26h-.99Z"/>
        <path class="cls-2" d="M71.04,46.63c-.07-.14-.17-.25-.29-.33-.13-.08-.28-.12-.45-.12s-.32.04-.46.12c-.14.08-.24.19-.32.34-.08.15-.12.31-.12.5s.04.36.12.5c.08.14.19.26.32.33.14.08.29.12.46.12.24,0,.43-.07.59-.21.15-.14.24-.33.27-.58h-.97v-.26h1.31v.25c-.02.2-.08.38-.19.55s-.25.3-.42.4-.37.15-.58.15c-.23,0-.43-.05-.62-.16-.19-.11-.33-.25-.44-.44-.11-.19-.16-.4-.16-.64s.05-.45.16-.64.26-.34.44-.44c.19-.11.39-.16.62-.16.26,0,.49.06.69.19.2.13.34.31.44.54h-.38Z"/>
        <path class="cls-2" d="M73.62,45.92l-.79,1.52v.92h-.32v-.92l-.8-1.52h.35l.6,1.24.6-1.24h.35Z"/>
        <path class="cls-2" d="M74.85,47.32s-.06-.09-.06-.15.02-.11.06-.15.09-.06.15-.06.11.02.15.06.06.09.06.15-.02.11-.06.15-.09.06-.15.06-.11-.02-.15-.06Z"/>
        <path class="cls-2" d="M76.91,48.3c-.13-.06-.23-.14-.3-.24s-.11-.22-.11-.35h.34c.01.11.06.21.14.29s.2.12.36.12.27-.04.36-.11c.09-.08.13-.17.13-.29,0-.09-.03-.17-.08-.23-.05-.06-.12-.1-.19-.13-.08-.03-.18-.06-.31-.1-.16-.04-.29-.08-.39-.13-.1-.04-.18-.11-.25-.2-.07-.09-.1-.21-.1-.36,0-.13.03-.25.1-.35.07-.1.16-.18.29-.24.12-.06.26-.08.42-.08.23,0,.42.06.56.17.15.11.23.27.25.45h-.35c-.01-.09-.06-.17-.15-.25-.09-.07-.2-.11-.34-.11-.13,0-.24.04-.33.1-.08.07-.13.17-.13.29,0,.09.02.16.08.22.05.06.11.1.19.13.07.03.18.06.31.1.16.04.29.09.39.13.1.04.18.11.25.2.07.09.1.21.1.37,0,.12-.03.23-.09.34-.06.11-.16.19-.28.26-.12.07-.27.1-.44.1s-.31-.03-.43-.08Z"/>
        <path class="cls-2" d="M79.11,48.23c-.19-.11-.33-.25-.44-.44-.11-.19-.16-.4-.16-.64s.05-.45.16-.64c.11-.19.26-.34.44-.44.19-.11.39-.16.62-.16s.44.05.62.16c.19.11.33.25.44.44s.16.4.16.64-.05.46-.16.64c-.11.19-.25.34-.44.44-.19.11-.39.16-.62.16s-.43-.05-.62-.16ZM80.19,47.99c.14-.08.24-.19.32-.34.08-.15.12-.32.12-.51s-.04-.37-.12-.51c-.08-.15-.18-.26-.32-.34-.13-.08-.29-.12-.46-.12s-.33.04-.46.12c-.13.08-.24.19-.32.34-.08.15-.12.32-.12.51s.04.36.12.51c.08.15.19.26.32.34.14.08.29.12.46.12s.32-.04.46-.12Z"/>
        <path class="cls-2" d="M81.41,46.5c.11-.19.25-.34.44-.45.18-.11.39-.16.62-.16.27,0,.5.06.7.19s.34.31.43.55h-.38c-.07-.15-.17-.26-.29-.34-.13-.08-.28-.12-.46-.12s-.32.04-.46.12c-.14.08-.24.19-.32.34-.08.15-.12.32-.12.51s.04.36.12.51c.08.15.18.26.32.34.13.08.29.12.46.12s.33-.04.46-.12.22-.19.29-.34h.38c-.09.23-.24.41-.43.54-.2.13-.43.19-.7.19-.23,0-.43-.05-.62-.16-.19-.11-.33-.25-.44-.44-.11-.19-.16-.4-.16-.64s.05-.45.16-.64Z"/>
        <path class="cls-2" d="M84.39,45.92v2.44h-.32v-2.44h.32Z"/>
        <path class="cls-2" d="M86.38,47.82h-1.06l-.2.54h-.34l.88-2.42h.37l.88,2.42h-.34l-.2-.54ZM86.29,47.56l-.44-1.23-.44,1.23h.88Z"/>
        <path class="cls-2" d="M87.61,48.1h.85v.26h-1.17v-2.44h.32v2.18Z"/>
      </g>
      <g>
        <g>
          <path class="cls-2" d="M50.98,115.73v.7h.76v.23h-.76v.72h.85v.23h-1.12v-2.09h1.12v.23h-.85Z"/>
          <path class="cls-2" d="M52.54,117.54c-.11-.05-.19-.12-.26-.2-.06-.09-.09-.19-.1-.3h.29c0,.1.05.18.12.25.07.07.17.1.31.1s.23-.03.31-.1.11-.15.11-.25c0-.08-.02-.15-.07-.2s-.1-.09-.17-.11c-.07-.03-.16-.05-.27-.08-.14-.04-.25-.07-.33-.11-.08-.04-.15-.09-.21-.17-.06-.08-.09-.18-.09-.31,0-.11.03-.21.09-.3.06-.09.14-.16.25-.2.1-.05.22-.07.36-.07.2,0,.36.05.48.15.12.1.2.23.21.39h-.3c0-.08-.05-.15-.13-.21-.07-.06-.17-.09-.29-.09-.11,0-.21.03-.28.09-.07.06-.11.14-.11.25,0,.08.02.14.06.19.04.05.1.08.16.11.06.03.15.05.27.09.14.04.25.08.33.11.08.04.16.09.22.17.06.08.09.18.09.31,0,.1-.03.2-.08.29s-.13.16-.24.22c-.11.06-.23.08-.38.08s-.26-.02-.37-.07Z"/>
          <path class="cls-2" d="M55.29,115.5v.22h-.57v1.87h-.27v-1.87h-.57v-.22h1.42Z"/>
        </g>
        <g>
          <path class="cls-2" d="M51.21,124.4c.64-.55,1.14-1.01,1.51-1.37.37-.36.68-.73.92-1.11.25-.39.37-.77.37-1.16s-.09-.71-.29-.94c-.19-.23-.49-.34-.89-.34s-.7.12-.92.38-.33.58-.34,1h-1.1c.02-.76.25-1.34.69-1.75.44-.4.99-.6,1.67-.6.73,0,1.29.2,1.71.6.41.4.61.93.61,1.6,0,.48-.12.94-.36,1.39-.24.44-.53.84-.87,1.19-.34.35-.77.75-1.29,1.21l-.45.4h3.17v.95h-4.86v-.83l.72-.62Z"/>
          <path class="cls-2" d="M56.93,119.5c.39-.65,1.06-.98,2.02-.98s1.62.33,2.01.98c.39.65.58,1.55.58,2.7s-.2,2.08-.58,2.74c-.39.66-1.06.99-2.01.99s-1.62-.33-2.02-.99c-.39-.66-.58-1.57-.58-2.74s.2-2.05.58-2.7ZM60.32,120.84c-.07-.37-.21-.68-.43-.92-.21-.24-.53-.36-.95-.36s-.74.12-.95.36c-.21.24-.36.54-.42.92-.07.37-.11.83-.11,1.37s.03,1.03.1,1.41c.07.38.21.69.43.92.22.23.53.35.96.35s.74-.12.95-.35c.22-.23.36-.54.43-.92.07-.38.1-.85.1-1.41s-.04-1-.1-1.37Z"/>
          <path class="cls-2" d="M63.39,124.4c.64-.55,1.14-1.01,1.51-1.37.37-.36.68-.73.92-1.11.25-.39.37-.77.37-1.16s-.09-.71-.29-.94c-.19-.23-.49-.34-.89-.34s-.7.12-.92.38-.33.58-.34,1h-1.1c.02-.76.25-1.34.69-1.75.44-.4.99-.6,1.67-.6.73,0,1.29.2,1.71.6.41.4.61.93.61,1.6,0,.48-.12.94-.36,1.39-.24.44-.53.84-.87,1.19-.34.35-.77.75-1.29,1.21l-.45.4h3.17v.95h-4.86v-.83l.72-.62Z"/>
          <path class="cls-2" d="M68.39,124.43v-.86l3.36-4.82h1.38v4.69h.93v.99h-.93v1.52h-1.12v-1.52h-3.62ZM72.06,119.91l-2.36,3.53h2.36v-3.53Z"/>
        </g>
      </g>
      <g>
        <path class="cls-3" d="M73.77,129.33c-.2,0-.41-.03-.6-.1-1.22-.4-1.82-1.94-1.33-3.43.49-1.49,1.88-2.38,3.1-1.98,1.22.4,1.82,1.94,1.33,3.43-.41,1.25-1.45,2.08-2.5,2.08ZM74.34,123.78c-1.02,0-2.05.81-2.45,2.04-.48,1.47.1,2.98,1.3,3.37,1.19.39,2.56-.48,3.04-1.95.48-1.47-.1-2.98-1.3-3.37-.19-.06-.39-.09-.59-.09Z"/>
        <path class="cls-3" d="M73.6,125.21c.62,0,.9.31.9.61,0,1-1.34,1.79-1.34,2.33,0,.06.02.1.06.1.43,0,2.01-2.58,2.68-2.58.05,0,.11,0,.11.06,0,.03-.02.04-.04.04s-.04-.02-.04-.06c0-.03,0-.03-.02-.03-.62,0-2.25,2.58-2.68,2.58-.07,0-.15-.07-.15-.18,0-.76,1.27-1.39,1.27-2.26,0-.29-.13-.59-.74-.59-.85,0-1.42.7-1.42,1.22,0,.19.08.35.25.45.1.05.23.08.4.08.64,0,.95-.47.95-.82,0-.22-.11-.39-.34-.39-.16,0-.35.07-.45.16h0c.1-.11.27-.18.46-.18.24,0,.36.18.36.4,0,.41-.37.99-.99.99-.48,0-.7-.29-.7-.65,0-.56.54-1.28,1.49-1.28h0Z"/>
      </g>
      <g>
        <path d="M15.47,46.61c-.31-.12-.65.02-.91.7l-.18-.07.98-2.51.18.07c-.24.84.02,1.13.76,1.85l5.59,5.45-.08.21-7.98.49c-1.1.07-1.39.18-1.77.96l-.18-.07,1.27-3.26.18.07c-.21.65-.22,1.06.18,1.21.18.07.41.07,1.16.03l5.91-.33-4.18-4.05c-.57-.55-.74-.68-.92-.75Z"/>
        <path d="M24.55,45.34l.18.09-1.58,3.23-.18-.09c.47-.95.37-1.26-.63-1.76l-5.01-2.45c-1-.49-1.27-.36-1.74.6l-.18-.09,1.58-3.23.17.08c-.47.96-.41,1.25.6,1.74l5.01,2.45c1.01.49,1.31.38,1.77-.58Z"/>
        <path d="M17.48,40.98l-.17-.1,3.43-5.7,2.14.41-.04.2c-1.37.03-2.22.36-2.85,1.42l-1.14,1.89,3.02,1.82.71-1.17c.58-.97.68-1.38-.25-2.04l.11-.18,2.51,1.51-.11.18c-1.02-.48-1.33-.26-1.93.73l-.71,1.17,2.66,1.6c.5.3.78.27,1.14-.34l.75-1.25c.63-1.05.53-1.96-.09-3.18l.16-.13,1.36,1.7-3.49,5.81-.17-.1c.55-.91.48-1.23-.48-1.8l-4.78-2.87c-.96-.58-1.24-.47-1.78.44Z"/>
        <path d="M30.31,36.33l.15.12-1.95,2.42-.15-.12c.67-.83.64-1.15-.23-1.85l-4.59-3.71c-.8-.02-1.32.08-1.91.81l-.15-.12,1.47-1.82,8.44.22.04-.05-3.92-3.17c-.99-.8-1.3-.73-1.97.1l-.15-.12,1.96-2.43.15.12c-.67.83-.67,1.15.32,1.95l5.51,4.45-.16.2-8.82-.2-.04.05,4.14,3.34c.87.7,1.2.64,1.87-.18Z"/>
        <path d="M35.97,30.08l.13.15-2.32,2.06-.13-.15c.79-.71.82-1.03.08-1.86l-3.92-4.41c-.79-.15-1.32-.13-2.02.49l-.13-.15,1.74-1.55,8.29,1.6.05-.05-3.35-3.77c-.85-.95-1.16-.93-1.96-.22l-.13-.15,2.33-2.07.13.15c-.79.71-.85,1.02,0,1.97l4.71,5.29-.19.17-8.67-1.64-.05.05,3.53,3.97c.74.83,1.08.83,1.87.13Z"/>
        <path d="M39.23,26.97c.59-.43.68-.87.55-1.9l-1.06-7.82.16-.09,6.3,4.35c.75.52,1.36.98,2.23.5l.1.17-2.87,1.74-.1-.17c.51-.34.74-.63.52-1-.15-.24-.59-.54-.82-.71l-1.01-.7-3.19,1.94.19,1.36c.05.35.11.72.24.93.24.39.69.17,1.18-.08l.1.17-2.41,1.46-.1-.17ZM39.99,22.89l2.9-1.76-3.54-2.46.63,4.23Z"/>
        <path d="M58.47,11.41c-.08-.42-.36-.55-1.12-.41l-.04-.19,2.61-.49.04.19c-.77.14-.92.61-1.09,1.62l-1.21,7.53-.22.04-3.13-5.07h-.03s-.93,5.84-.93,5.84l-.23.04-4.14-6.77c-.47-.76-.68-1.04-1.48-.89l-.04-.19,3.09-.58.04.19c-.49.09-.91.28-.83.71.02.12.12.32.34.69l3.01,5.03h.05s.77-4.73.77-4.73l-.54-.89c-.6-.99-.9-1.17-1.64-1.03l-.04-.19,3.25-.61.04.19c-.59.11-1,.25-.91.77.05.27.2.52.59,1.16l2.73,4.53h.05s.88-5.28.88-5.28c.05-.31.16-.9.1-1.2Z"/>
        <path d="M58.64,18.9c.73-.04,1.05-.36,1.5-1.29l3.38-7.12h.18s2.9,7.09,2.9,7.09c.35.84.61,1.57,1.6,1.64v.2s-3.36-.11-3.36-.11v-.2c.62,0,.98-.12.99-.55,0-.29-.2-.77-.3-1.04l-.47-1.13-3.73-.12-.59,1.24c-.15.32-.3.67-.31.91-.01.46.49.52,1.03.58v.2s-2.83-.09-2.83-.09v-.2ZM61.51,15.9l3.4.11-1.62-4-1.78,3.89Z"/>
        <path d="M73.68,12.36c-1.79-.46-3.59.55-4.31,3.29-.71,2.74.88,4.19,2.46,4.6,1.42.37,2.39-.08,3.49-.96l.16.15c-1.19,1.2-2.49,1.64-4.26,1.18-2.44-.63-3.62-2.9-3.01-5.26.64-2.47,2.97-4.05,5.54-3.39,1.01.26,1.6.91,1.87.98s.44-.25.54-.36l.19.05.04,2.92h-.23c-.39-1.57-1.05-2.84-2.47-3.21Z"/>
        <path d="M83.63,16.4l.09-.17,3.21,1.68-.09.17c-.94-.49-1.24-.44-1.75.55l-2.58,4.94c-.52.99-.41,1.3.53,1.79l-.09.17-3.21-1.68.09-.17c.94.49,1.25.41,1.77-.58l1.21-2.33-4.03-2.1-1.21,2.33c-.52.99-.41,1.3.53,1.79l-.09.17-3.21-1.68.09-.17c.94.49,1.25.41,1.77-.58l2.58-4.94c.52-.99.39-1.26-.55-1.75l.09-.17,3.21,1.68-.09.17c-.94-.49-1.24-.44-1.75.55l-1.17,2.25,4.03,2.1,1.17-2.25c.52-.99.39-1.26-.55-1.75Z"/>
        <path d="M88.02,18.97l.12-.15,5.19,4.15-.68,2.06-.19-.07c.15-1.36-.06-2.25-1.02-3.02l-1.72-1.38-2.2,2.75,1.07.86c.88.71,1.28.86,2.05.03l.16.13-1.83,2.28-.16-.13c.61-.94.44-1.28-.47-2.01l-1.07-.86-1.94,2.43c-.37.46-.37.73.18,1.18l1.13.91c.96.77,1.88.79,3.17.34l.11.17-1.86,1.12-5.29-4.23.12-.15c.83.66,1.15.64,1.85-.23l3.48-4.35c.7-.87.63-1.16-.2-1.83Z"/>
        <path d="M91.16,32.29l1.07,1.17c.85.93,1.87.89,3.21.64l.08.21-2.26.99-4.61-5.04.14-.13c.72.78,1.04.81,1.87.06l4.12-3.76c.83-.75.8-1.05.08-1.84l.14-.13,2.59,2.84-.14.13c-.9-.98-1.16-1-1.99-.25l-4.3,3.93c-.43.39-.48.67,0,1.19Z"/>
        <path d="M93.8,35.54c.6.88.91.95,1.84.32l4.62-3.13c.92-.63.94-.93.35-1.8l.16-.11,1.94,2.86c1.83,2.71,1.99,5.15-.51,6.85-1.95,1.32-4.56,1.01-6.36-1.65l-2.19-3.23.16-.11ZM96.15,38.64c1.27,1.87,3.37,2.24,5.33.91,2.15-1.46,2.33-3.51,1.1-5.32-.26-.38-.65-.87-.99-1.17l-6.17,4.19c.17.44.47,1,.74,1.39Z"/>
        <path d="M106.11,39.28l.17-.09,2.99,5.95-1.48,1.59-.15-.15c.71-1.17.88-2.07.33-3.17l-.99-1.97-3.15,1.58.62,1.22c.51,1.01.81,1.32,1.85.88l.09.19-2.61,1.31-.09-.19c.95-.6.93-.98.41-2.02l-.62-1.22-2.77,1.39c-.52.26-.65.51-.33,1.15l.65,1.3c.55,1.1,1.38,1.5,2.74,1.63l.03.2-2.16.24-3.04-6.06.17-.09c.48.95.78,1.06,1.78.56l4.98-2.5c1-.5,1.05-.79.58-1.75Z"/>
        <path d="M102.19,49.81c.37,1,.66,1.14,1.71.76l5.24-1.92c1.05-.39,1.14-.67.77-1.67l.18-.07,1.28,3.49c.69,1.88.25,3.23-1.04,3.7-1.15.42-2.27-.34-2.98-1.56l-2.66,4.46-.06.02-.42-1.14,2.67-4.43-.29-.79-2.34.86c-1.05.39-1.18.68-.8,1.7l-.18.07-1.25-3.41.18-.07ZM107.13,51.06c.65,1.77,1.65,2.37,2.75,1.97,1.1-.4,1.5-1.49,1.08-2.63-.22-.59-.39-.9-.56-1.14l-3.44,1.27c.03.17.1.34.17.53Z"/>
      </g>
      <g>
        <path class="cls-2" d="M21.47,111.06c-.3-.86-1.11-1.32-1.91-1.04-2.11.74-.43,5.17-3,6.08-1.35.48-2.55-.3-3-1.59-.39-1.1-.19-1.72-.32-2.09-.06-.18-.31-.25-.51-.29l-.06-.17,2.6-1.82.14.17c-1.33,1.71-1.92,2.78-1.48,4.01.35.98,1.17,1.31,1.99,1.02,2.23-.79.48-5.06,3.06-5.97,1.17-.41,2.42.25,2.87,1.54.32.92.12,1.5.25,1.87.06.18.33.16.48.18l.06.17-2.36,1.59-.13-.17c1.07-1.27,1.74-2.38,1.35-3.48Z"/>
        <path class="cls-2" d="M24.78,118.15c1.01,2.14-.13,4.46-2.37,5.52-2.17,1.03-4.75.46-5.76-1.67-1.02-2.15.19-4.5,2.36-5.53s4.76-.45,5.77,1.69ZM21.94,122.66c1.87-.88,3.41-2.43,2.5-4.35-.91-1.93-3.1-1.71-4.95-.84-1.88.89-3.4,2.44-2.5,4.36.91,1.93,3.07,1.71,4.95.82Z"/>
        <path class="cls-2" d="M28.88,126.27c-.93-1.44-2.88-1.84-5.27-.31-2.38,1.53-2.27,3.56-1.45,4.84.74,1.15,1.72,1.43,3.1,1.47v.21c-1.64.12-2.85-.37-3.78-1.8-1.27-1.97-.53-4.34,1.51-5.66,2.14-1.38,4.86-1.07,6.2,1.01.53.82.49,1.65.63,1.87s.48.09.62.08l.1.15-1.99,2.13-.17-.14c.82-1.38,1.23-2.71.49-3.86Z"/>
        <path class="cls-2" d="M26.37,136.76l-.15.12-2.06-2.63.15-.12c.61.78.92.82,1.8.13l4.39-3.44c.88-.69.89-.98.28-1.75l.15-.12,2.06,2.63-.15.12c-.61-.78-.89-.84-1.77-.15l-4.39,3.44c-.88.69-.92,1-.31,1.78Z"/>
        <path class="cls-2" d="M26.32,136.9c.51.44.95.42,1.9.05l7.24-2.88.12.12-3.03,6.93c-.36.83-.69,1.51-.08,2.2l-.14.13-2.16-2.25.14-.13c.41.39.73.54,1.04.24.21-.2.41-.68.53-.93l.48-1.11-2.4-2.5-1.26.51c-.32.13-.67.28-.85.45-.33.31-.04.69.28,1.08l-.14.13-1.82-1.9.14-.13ZM30.33,136.62l2.18,2.28,1.72-3.9-3.9,1.62Z"/>
        <path class="cls-2" d="M35.21,145.05l1.16.9c.92.72,1.88.48,3.13-.02l.11.18-2.02,1.39-5.01-3.9.12-.15c.78.61,1.09.57,1.78-.31l3.42-4.4c.69-.88.62-1.16-.16-1.77l.12-.15,2.82,2.2-.12.15c-.97-.76-1.23-.73-1.92.16l-3.58,4.59c-.36.46-.37.73.15,1.14Z"/>
        <path class="cls-2" d="M45.27,151.62l-.07.18-2.7-1.03.07-.18c.83.32,1.16.18,1.65-.89l2.25-4.92c.49-1.06.38-1.36-.63-1.74l.07-.18,2.04.78.16,7.53,5-5.56,2.11.81-.07.18c-.97-.37-1.22-.33-1.61.89l-1.6,5.17c-.34,1.12-.18,1.45.61,1.75l-.07.18-3.15-1.2.07-.18c.96.37,1.3.23,1.65-.89l1.75-5.65h-.04s-5.43,5.96-5.43,5.96l-.17-.06-.15-7.85h-.04s-2.36,5.15-2.36,5.15c-.49,1.07-.35,1.38.62,1.75Z"/>
        <path class="cls-2" d="M53.16,154.45c.68.01,1-.28,1.5-1.17l3.74-6.84.17.02,2.08,7.27c.25.87.43,1.61,1.34,1.75l-.02.19-3.1-.36.02-.19c.57.04.91-.05.96-.48.03-.28-.12-.79-.19-1.06l-.33-1.16-3.45-.4-.65,1.19c-.17.31-.34.64-.37.89-.05.45.41.56.91.66l-.02.19-2.61-.3.02-.19ZM56.07,151.68l3.14.37-1.16-4.1-1.98,3.73Z"/>
        <path class="cls-2" d="M65.54,155.12l.02.19-2.87.31-.02-.19c.98-.11,1.18-.35,1.06-1.46l-.64-5.87c-.52-.58-.93-.88-1.8-.79l-.02-.19,2.16-.23,5.47,6.15h.06s-.54-5.02-.54-5.02c-.14-1.27-.39-1.44-1.37-1.33l-.02-.19,2.88-.31.02.19c-.98.11-1.19.33-1.06,1.59l.76,7.04-.23.03-5.73-6.41h-.06s.57,5.29.57,5.29c.12,1.11.38,1.31,1.36,1.2Z"/>
        <path class="cls-2" d="M71.37,154.44c.62-.28.78-.68.84-1.71l.42-7.79.16-.05,5.02,5.66c.6.67,1.08,1.26,1.97,1l.06.18-2.95,1.01-.06-.18c.53-.21.8-.44.66-.84-.09-.27-.45-.66-.63-.87l-.81-.91-3.28,1.13-.07,1.36c-.02.35-.03.72.05.96.15.43.61.33,1.1.2l.06.18-2.48.85-.06-.18ZM72.8,150.68l2.99-1.03-2.82-3.2-.17,4.23Z"/>
        <path class="cls-2" d="M79.86,141.98c-1.62.96-1.86,2.9-.67,4.91,1.29,2.18,3.31,2.94,4.99,1.94.83-.49,1.11-1.11,1.28-1.94l-.91-1.54c-.57-.96-.87-1.04-1.73-.53l-.1-.17,2.61-1.54.1.17c-.7.42-.69.75-.22,1.54l1.66,2.8-.21.13-.91-.4c-.21.89-.68,1.56-1.6,2.11-2.07,1.23-4.46.43-5.7-1.66-1.3-2.19-.89-4.9,1.18-6.12.89-.53,1.88-.55,2.1-.69s.11-.47.1-.62l.16-.09,1.81,2.07-.16.16c-1.29-.99-2.64-1.19-3.76-.53Z"/>
        <path class="cls-2" d="M83.14,139.96l-.13-.15,4.69-4.03,1.86,1.09-.1.17c-1.27-.44-2.14-.42-3.01.33l-1.56,1.34,2.3,2.67.97-.83c.8-.69,1-1.03.32-1.94l.15-.13,1.91,2.22-.15.13c-.81-.78-1.16-.69-1.97.02l-.97.83,2.02,2.36c.38.44.64.51,1.15.08l1.03-.88c.87-.75,1.02-1.61.77-2.93l.18-.07.8,2-4.78,4.11-.13-.15c.75-.64.77-.96.04-1.8l-3.63-4.23c-.73-.85-1.01-.84-1.76-.2Z"/>
        <path class="cls-2" d="M96.64,138.56l.15.12-1.84,2.23-.15-.12c.56-.68.54-1.04-.32-1.84l-3.94-3.7c-.85-.8-1.17-.79-1.85.04l-.15-.12,1.39-1.69,7.19,2.25-3.68-6.52,1.44-1.75.15.12c-.66.8-.7,1.06.33,1.81l4.39,3.16c.95.68,1.32.63,1.86-.02l.15.12-2.14,2.6-.15-.12c.65-.79.64-1.16-.32-1.85l-4.8-3.46-.03.03,3.93,7.05-.12.14-7.49-2.36-.02.03,4.15,3.89c.85.8,1.2.77,1.86-.03Z"/>
        <path class="cls-2" d="M94.98,127.44l-.17-.1,3.22-5.29,2.11.46-.04.19c-1.34-.02-2.17.26-2.76,1.24l-1.07,1.75,3.01,1.83.66-1.09c.55-.9.63-1.29-.29-1.94l.1-.17,2.5,1.52-.1.17c-1.01-.49-1.31-.3-1.87.63l-.66,1.09,2.65,1.62c.5.3.77.29,1.12-.28l.7-1.16c.6-.98.47-1.85-.17-3.02l.15-.12,1.38,1.66-3.28,5.39-.17-.1c.51-.84.44-1.15-.52-1.73l-4.77-2.9c-.96-.58-1.23-.49-1.74.36Z"/>
        <path class="cls-2" d="M107.34,122.22l.18.08-1.21,2.62-.18-.08c.42-.9.31-1.19-.71-1.66l-5.36-2.48c-.77.15-1.23.34-1.6,1.14l-.18-.08.91-1.97,8.09-1.51.03-.06-4.58-2.12c-1.16-.54-1.43-.41-1.85.49l-.18-.08,1.22-2.63.18.08c-.42.9-.34,1.19.82,1.73l6.43,2.98-.1.21-8.45,1.6-.03.06,4.82,2.23c1.01.47,1.31.35,1.73-.55Z"/>
        <path class="cls-2" d="M111.55,111.64l.18.06-1.1,3.21-.18-.06c.32-.95.19-1.23-.87-1.59l-6.29-2.14-.23.69c-.37,1.08-.06,1.78.82,2.79l-.13.13-1.69-1.32,1.97-5.77h2.15s.02.18.02.18c-1.31.27-1.99.63-2.35,1.71l-.24.69,6.29,2.14c1.06.36,1.34.22,1.66-.72Z"/>
      </g>
      <g>
        <path class="cls-2" d="M73.81,129.35c-.2,0-.41-.03-.6-.1-1.22-.4-1.82-1.94-1.33-3.43.49-1.49,1.88-2.38,3.1-1.98,1.22.4,1.82,1.94,1.33,3.43-.41,1.25-1.45,2.08-2.5,2.08ZM74.37,123.79c-1.02,0-2.05.81-2.45,2.04-.48,1.47.1,2.98,1.3,3.37,1.19.39,2.56-.48,3.04-1.95.48-1.47-.1-2.98-1.3-3.37-.19-.06-.39-.09-.59-.09Z"/>
        <path d="M73.63,125.23c.62,0,.9.31.9.61,0,1-1.34,1.79-1.34,2.33,0,.06.02.1.06.1.43,0,2.01-2.58,2.68-2.58.05,0,.11,0,.11.06,0,.03-.02.04-.04.04s-.04-.02-.04-.06c0-.03,0-.03-.02-.03-.62,0-2.25,2.58-2.68,2.58-.07,0-.15-.07-.15-.18,0-.76,1.27-1.39,1.27-2.26,0-.29-.13-.59-.74-.59-.85,0-1.42.7-1.42,1.22,0,.19.08.35.25.45.1.05.23.08.4.08.64,0,.95-.47.95-.82,0-.22-.11-.39-.34-.39-.16,0-.35.07-.45.16h0c.1-.11.27-.18.46-.18.24,0,.36.18.36.4,0,.41-.37.99-.99.99-.48,0-.7-.29-.7-.65,0-.56.54-1.28,1.49-1.28h0Z"/>
      </g>
    </g>
  </g>
</svg>