<?xml version="1.0" encoding="UTF-8"?>
<svg id="Layer_2" data-name="Layer 2" xmlns="http://www.w3.org/2000/svg" viewBox="0 0 88.17 103.55">
  <g id="Layer_1-2" data-name="Layer 1">
    <g>
      <path d="M60.45,1.77C37.87-5.61,12.17,10.81,3.15,38.38c-9.03,27.57,2,56.01,24.57,63.4,3.66,1.19,7.4,1.77,11.14,1.77,19.32,0,38.59-15.28,46.15-38.38,9.03-27.57-1.99-56.01-24.56-63.4ZM84.06,64.86c-8.85,27.05-33.99,43.18-56.03,35.97C5.98,93.61-4.75,65.74,4.1,38.69,11.52,16.01,30.39,1,49.3,1c3.63,0,7.27.56,10.83,1.72,22.05,7.22,32.79,35.09,23.93,62.14Z"/>
      <path d="M78.06,35.82c-12.37,0-41.53,47.6-49.39,47.6-.77,0-1.16-.62-1.16-1.79,0-9.95,24.65-24.5,24.65-42.93,0-5.44-5.13-11.2-16.57-11.2-17.57,0-27.53,13.22-27.53,23.56,0,6.61,4.12,12.06,12.91,12.06,11.51,0,18.36-10.73,18.36-18.28,0-4.2-2.1-7.46-6.61-7.46-3.5,0-6.69,1.24-8.56,3.03l.16.23c1.79-1.71,5.29-2.95,8.32-2.95,4.2,0,6.3,3.19,6.3,7.23,0,6.53-5.76,15.17-17.58,15.17-3.03,0-5.44-.55-7.31-1.56-3.19-1.71-4.66-4.67-4.66-8.24,0-9.49,10.57-22.48,26.2-22.48,11.21,0,13.69,5.52,13.69,10.89,0,16.02-23.41,27.61-23.41,41.69,0,2.02,1.48,3.34,2.8,3.34,7.86,0,38.04-47.6,49.39-47.6.31,0,.39.08.39.55,0,.77.39,1.09.78,1.09s.77-.32.77-.78c0-1.17-.93-1.17-1.94-1.17Z"/>
    </g>
  </g>
</svg>